<mxfile host="app.diagrams.net" modified="2022-05-19T22:18:23.072Z" agent="5.0 (Windows NT 10.0; Win64; x64) AppleWebKit/537.36 (KHTML, like Gecko) Chrome/101.0.4951.67 Safari/537.36" etag="02FaE6cCXHWAOcpXWfDw" version="18.0.8" type="github">
  <diagram id="53hnsE5uCV1dhJbkJDx_" name="Page-1">
    <mxGraphModel dx="1422" dy="705" grid="1" gridSize="10" guides="1" tooltips="1" connect="1" arrows="1" fold="1" page="1" pageScale="1" pageWidth="850" pageHeight="1100" math="0" shadow="0">
      <root>
        <mxCell id="0" />
        <mxCell id="1" parent="0" />
        <mxCell id="FDCc68zR9kzrdLwON3WZ-1" value="" style="rounded=0;whiteSpace=wrap;html=1;" vertex="1" parent="1">
          <mxGeometry y="5" width="850" height="40" as="geometry" />
        </mxCell>
        <mxCell id="FDCc68zR9kzrdLwON3WZ-2" value="APEX WIKI by retrowz" style="text;html=1;align=center;verticalAlign=middle;resizable=0;points=[];autosize=1;strokeColor=none;fillColor=none;" vertex="1" parent="1">
          <mxGeometry y="15" width="140" height="20" as="geometry" />
        </mxCell>
        <mxCell id="FDCc68zR9kzrdLwON3WZ-4" value="Menu" style="text;html=1;strokeColor=none;fillColor=none;align=center;verticalAlign=middle;whiteSpace=wrap;rounded=0;" vertex="1" parent="1">
          <mxGeometry x="790" y="10" width="60" height="30" as="geometry" />
        </mxCell>
        <mxCell id="FDCc68zR9kzrdLwON3WZ-10" value="" style="shape=image;html=1;verticalAlign=top;verticalLabelPosition=bottom;labelBackgroundColor=#ffffff;imageAspect=0;aspect=fixed;image=https://cdn4.iconfinder.com/data/icons/basic-user-interface-2/512/User_Interface-03-128.png" vertex="1" parent="1">
          <mxGeometry x="770" width="50" height="50" as="geometry" />
        </mxCell>
      </root>
    </mxGraphModel>
  </diagram>
</mxfile>
